<svg xmlns="http://www.w3.org/2000/svg" aria-hidden="true" style="position:absolute;width:0;height:0;overflow:hidden">
    <defs>
        <symbol id="icon-logo" viewBox="0 0 28 32">
            <path
                d="M3.09 31.568c-.185.235-.524.272-.756.084L.429 30.106c-.232-.188-.27-.531-.085-.766l9.998-12.661c.185-.235.524-.272.756-.084l1.905 1.546c.232.188.27.531.085.766L3.09 31.568zM19.032.353c1.853.076 3.632.764 5.063 1.96s2.438 2.834 2.865 4.663c.427 1.83.253 3.751-.498 5.471s-2.035 3.143-3.658 4.054c-1.623.91-3.495 1.257-5.331.988s-3.534-1.14-4.837-2.479c-1.302-1.339-2.136-3.074-2.375-4.938s.13-3.758 1.052-5.389l.327.19c-.881 1.56-1.234 3.368-1.005 5.15s1.026 3.439 2.27 4.719c1.244 1.28 2.868 2.112 4.622 2.369s3.544-.074 5.095-.944c1.551-.87 2.779-2.23 3.496-3.874s.884-3.48.476-5.228c-.409-1.749-1.37-3.314-2.738-4.457S20.789.807 19.017.735l.015-.382z" />
            <path
                d="M21.059 10.836c-1.05 1.329-2.963 1.544-4.274.48s-1.523-3.004-.473-4.333c1.049-1.329 2.963-1.544 4.274-.48s1.523 3.004.473 4.333z" />
        </symbol>
    </defs>
</svg>